<?xml version="1.0" encoding="UTF-8"?>
<svg width="40px" height="40px" viewBox="0 0 40 40" version="1.1" xmlns="http://www.w3.org/2000/svg" xmlns:xlink="http://www.w3.org/1999/xlink">
    <title>Embark</title>
    <g id="Page-1" stroke="none" stroke-width="1" fill="none" fill-rule="evenodd">
        <g id="Embark" fill-rule="nonzero">
            <rect id="rect840" fill="#1E1C31" x="2.74675878e-10" y="8.25067602e-10" width="39.9994939" height="39.9949367"></rect>
            <g id="text860" transform="translate(6.443267, 16.095238)" fill="#CBE3E7">
                <polygon id="path1284" points="3.52018737 0.0200978734 3.52018737 0.998195978 0.803879412 0.998195978 0.803879412 3.14370072 2.61475126 3.14370072 2.46172004 4.12179882 0.803879412 4.12179882 0.803879412 4.82382043 3.52018737 4.82382043 3.52018737 5.80191854 0.0132171845 5.80191854 0.0132171845 5.80191854 0.0132171845 4.82382043 0.0132171845 4.12179882 0.0132171845 3.14370072 0.0132171845 0.998195978 0.0132171845 0.509146926 0.0132171845 0.0200978734"></polygon>
                <path d="M4.87195426,5.80191854 L4.1514313,5.80191854 L4.73805153,0.0200978734 L6.14721628,2.94650355 L6.8996208,4.51619314 L6.48516064,5.36808478 L5.87303465,4.10602295 L5.19076977,2.67042753 L4.87195426,5.80191854 Z M7.03989932,4.23222895 L6.62543954,3.37244961 L8.25777478,0.0200978734 L8.83164269,5.80191854 L8.11111972,5.80191854 L7.80505653,2.66253983 L7.09728626,4.10602295 L7.03989932,4.23222895 Z" id="path1286"></path>
                <path d="M12.2429573,2.34702437 C12.3917379,2.39961028 12.5277659,2.48111838 12.6510413,2.59154866 C12.7785675,2.69672048 12.8869647,2.82292664 12.976233,2.97016712 C13.0697522,3.11740792 13.1420171,3.28305366 13.1930277,3.46710434 C13.2440382,3.64589624 13.2695435,3.8352054 13.2695435,4.03503179 C13.2695435,4.28218563 13.2312855,4.5135636 13.1547696,4.7291657 C13.0825049,4.93950934 12.980484,5.12618941 12.8487068,5.28920592 C12.7211806,5.44696365 12.5702746,5.5731698 12.3959889,5.66782437 C12.225954,5.75722048 12.0431664,5.80191854 11.8476264,5.80191854 L9.45651008,5.80191854 L9.45651008,0.0200978734 L11.5224343,0.0200978734 C11.6712149,0.0200978734 11.8093683,0.0569080722 11.9368945,0.13052847 C12.0686717,0.19889009 12.1834453,0.293544665 12.2812154,0.414492195 C12.3789854,0.535439725 12.4555011,0.677421743 12.5107624,0.840438249 C12.5702747,0.998195978 12.6000309,1.16910018 12.6000309,1.35315087 C12.6000309,1.55297726 12.5681493,1.73965718 12.5043862,1.91319062 C12.4406231,2.08146559 12.3534802,2.22607684 12.2429573,2.34702437 L12.2429573,2.34702437 Z M10.2407962,1.82642405 L11.3438977,1.82642405 C11.4501696,1.82642405 11.5394379,1.781726 11.6117028,1.69232989 C11.6839677,1.59767532 11.7201002,1.48461564 11.7201002,1.35315087 C11.7201002,1.22694456 11.6839677,1.11914335 11.6117028,1.02974724 C11.5394379,0.935092669 11.4501696,0.887765381 11.3438977,0.887765381 L10.2407962,0.887765381 L10.2407962,1.82642405 Z M11.6627132,4.847484 C11.7604833,4.847484 11.851877,4.82382043 11.9368945,4.7764933 C12.026163,4.72916586 12.1026788,4.6660627 12.1664419,4.58718384 C12.2344558,4.50830498 12.2875915,4.41627963 12.3258493,4.31110781 C12.3641072,4.20067753 12.3832362,4.08498862 12.3832362,3.96404109 C12.3832362,3.84309356 12.3641072,3.73003389 12.3258493,3.62486207 C12.2875915,3.51443147 12.2344558,3.41977674 12.1664419,3.34089788 C12.1026788,3.26201901 12.026163,3.19891601 11.9368945,3.15158888 C11.851877,3.10426144 11.7604833,3.08059772 11.6627132,3.08059772 L10.23442,3.08059772 L10.23442,4.847484 L11.6627132,4.847484 Z" id="path1288"></path>
                <path d="M16.2281455,0.0200978734 L18.5618748,5.80191854 L13.88804,5.80191854 L16.2281455,0.0200978734 Z M16.2281455,1.99206948 L15.0485281,4.91847516 L17.4077628,4.91847516 L16.2281455,1.99206948 Z" id="path1290"></path>
                <path d="M22.8212386,2.17349078 C22.8212386,2.39435166 22.7957333,2.6046953 22.7447228,2.80452169 C22.6937123,3.00434809 22.6214475,3.191028 22.5279285,3.36456144 C22.43866,3.53283642 22.3302626,3.68533568 22.2027364,3.82205923 C22.0752102,3.95352369 21.9349315,4.06132474 21.7819001,4.14546239 L22.7638516,5.80191854 L21.7882763,5.80191854 L20.9083456,4.31899598 L20.2898438,4.31899598 L20.130436,3.34878604 L21.0868822,3.34878604 C21.2186594,3.34878604 21.3419348,3.3198637 21.4567085,3.26201901 C21.5714818,3.19891586 21.6713773,3.11477837 21.7563947,3.00960655 C21.8414122,2.89917627 21.9094262,2.77297011 21.9604367,2.6309881 C22.0114473,2.48900608 22.0369525,2.33650697 22.0369525,2.17349078 C22.0369525,2.01047458 22.0114473,1.85797547 21.9604367,1.71599346 C21.9094262,1.57401144 21.8414122,1.45043452 21.7563947,1.3452627 C21.6713773,1.24009088 21.5714818,1.1559534 21.4567085,1.09285024 C21.3419348,1.0297474 21.2186594,0.998195978 21.0868822,0.998195978 L19.9965333,0.998195978 L19.9965333,5.80191854 L19.2122472,5.80191854 L19.2122472,0.998195978 L19.2122472,0.509146926 L19.2122472,0.0200978734 L21.0868822,0.0200978734 C21.3249312,0.0200978734 21.5481021,0.077942405 21.7563947,0.193631468 C21.9689384,0.304061754 22.1538514,0.456560861 22.3111338,0.651128788 C22.4684161,0.845696716 22.5916915,1.07444545 22.6809597,1.337375 C22.774479,1.59504577 22.8212386,1.87375103 22.8212386,2.17349078 L22.8212386,2.17349078 Z" id="path1292"></path>
                <path d="M24.3834334,4.14546239 L24.3834334,4.14546239 L24.2495311,4.36632311 L24.2495311,5.80191854 L23.465245,5.80191854 L23.465245,0.0200978734 L24.2495311,0.0200978734 L24.2495311,2.71775513 L25.8627375,0.0200978734 L26.8383128,0.0200978734 L25.2506118,2.6940911 L25.2506118,2.6940911 L24.3834334,4.14546239 Z M25.3653853,2.89128826 L27.0997414,5.80191854 L26.124166,5.80191854 L24.8744094,3.71162863 L25.3653853,2.89128826 Z" id="path1294"></path>
            </g>
            <g id="g965" transform="translate(6.428485, 23.090065)">
                <rect id="rect866" fill="#F48FB1" x="0.027910435" y="0.0246112848" width="4.5144492" height="1"></rect>
                <rect id="rect868" fill="#A1EFD3" x="4.54235127" y="0.0246112848" width="4.5144492" height="1"></rect>
                <rect id="rect870" fill="#FFE6B3" x="9.05679646" y="0.0246112848" width="4.5144492" height="1"></rect>
                <rect id="rect874" fill="#91DDFF" x="13.5712605" y="0.0246112848" width="4.5144492" height="1"></rect>
                <rect id="rect876" fill="#D4BFFF" x="18.0856931" y="0.0246112848" width="4.5144492" height="1"></rect>
                <rect id="rect878" fill="#87DFEB" x="22.6001644" y="0.0246112848" width="4.5144492" height="1"></rect>
            </g>
        </g>
    </g>
</svg>